# Blender v3.1.2 OBJ File: ''
# www.blender.org
mtllib Srand.mtl
o Cube_Cube.002
v -0.705998 0.406982 0.705998
v -1.000000 2.000000 1.000000
v -0.705998 0.406982 -0.705998
v -0.705998 1.593018 -0.705998
v 0.705998 0.406982 0.705998
v 0.705998 1.593018 0.705998
v 0.705998 0.406982 -0.705998
v 0.705998 1.593018 -0.705998
v -1.000000 0.000000 -1.000000
v -1.000000 0.000000 1.000000
v -0.705998 1.593018 0.705998
v -1.000000 2.000000 -1.000000
v 1.000000 0.000000 -1.000000
v 1.000000 2.000000 -1.000000
v 1.000000 0.000000 1.000000
v 1.000000 2.000000 1.000000
vt 0.604996 0.000000
vt 0.395004 0.250000
vt 0.395004 0.000000
vt 0.604996 0.250000
vt 0.395004 0.500000
vt 0.604996 0.500000
vt 0.395004 0.750000
vt 0.604996 0.750000
vt 0.395004 1.000000
vt 0.375000 0.500000
vt 0.125000 0.750000
vt 0.125000 0.500000
vt 0.875000 0.500000
vt 0.625000 0.750000
vt 0.625000 0.500000
vt 0.375000 0.000000
vt 0.625000 0.250000
vt 0.375000 0.250000
vt 0.375000 0.750000
vt 0.625000 1.000000
vt 0.604996 1.000000
vt 0.875000 0.750000
vt 0.625000 0.000000
vt 0.375000 1.000000
vn -1.0000 0.0000 0.0000
vn 0.0000 0.0000 -1.0000
vn 1.0000 0.0000 0.0000
vn 0.0000 0.0000 1.0000
vn 0.0000 -1.0000 0.0000
vn 0.0000 1.0000 0.0000
vn -0.8106 0.5856 0.0000
vn -0.8106 -0.5856 0.0000
vn 0.0000 0.5856 -0.8106
vn 0.0000 -0.5856 -0.8106
vn 0.8106 0.5856 0.0000
vn 0.8106 -0.5856 0.0000
vn 0.0000 0.5856 0.8106
vn 0.0000 -0.5856 0.8106
usemtl Material.001
s off
f 11/1/1 3/2/1 1/3/1
f 4/4/2 7/5/2 3/2/2
f 8/6/3 5/7/3 7/5/3
f 6/8/4 1/9/4 5/7/4
f 13/10/5 10/11/5 9/12/5
f 12/13/6 16/14/6 14/15/6
f 3/2/7 10/16/7 1/3/7
f 11/1/8 12/17/8 4/4/8
f 7/5/9 9/18/9 3/2/9
f 4/4/10 14/15/10 8/6/10
f 5/7/11 13/10/11 7/5/11
f 8/6/12 16/14/12 6/8/12
f 1/9/13 15/19/13 5/7/13
f 6/8/14 2/20/14 11/21/14
f 11/1/1 4/4/1 3/2/1
f 4/4/2 8/6/2 7/5/2
f 8/6/3 6/8/3 5/7/3
f 6/8/4 11/21/4 1/9/4
f 13/10/5 15/19/5 10/11/5
f 12/13/6 2/22/6 16/14/6
f 3/2/7 9/18/7 10/16/7
f 11/1/8 2/23/8 12/17/8
f 7/5/9 13/10/9 9/18/9
f 4/4/10 12/17/10 14/15/10
f 5/7/11 15/19/11 13/10/11
f 8/6/12 14/15/12 16/14/12
f 1/9/13 10/24/13 15/19/13
f 6/8/14 16/14/14 2/20/14
