# Blender v3.1.2 OBJ File: ''
# www.blender.org
mtllib Tree.mtl
o Circle
v 0.000000 0.000000 -1.000000
v -0.951057 0.000000 -0.309017
v -0.587785 0.000000 0.809017
v 0.587785 0.000000 0.809017
v 0.951056 0.000000 -0.309017
v 0.000000 22.002239 -1.000000
v -0.951057 22.002239 -0.309017
v -0.587785 22.002239 0.809017
v 0.587785 22.002239 0.809017
v 0.951056 22.002239 -0.309017
v -0.000000 21.074345 -5.516500
v -5.246503 21.074345 -1.704692
v -3.242517 21.074345 4.462943
v 3.242517 21.074345 4.462941
v 5.246502 21.074345 -1.704693
v 0.000000 25.173878 -1.974069
v -1.877451 25.173878 -0.610021
v -1.160328 25.173878 1.597055
v 1.160329 25.173878 1.597055
v 1.877451 25.173878 -0.610021
v -0.000000 24.581898 -4.489753
v -4.270009 24.581898 -1.387410
v -2.639010 24.581898 3.632287
v 2.639011 24.581898 3.632286
v 4.270008 24.581898 -1.387410
v 0.000000 27.420473 -1.143112
v -1.087164 27.420473 -0.353241
v -0.671904 27.420473 0.924797
v 0.671904 27.420473 0.924797
v 1.087164 27.420473 -0.353241
v -0.000000 27.159994 -3.432417
v -3.264422 27.159994 -1.060675
v -2.017524 27.159994 2.776884
v 2.017525 27.159994 2.776884
v 3.264423 27.159994 -1.060676
v 0.000000 30.619631 0.000000
vt 0.000000 0.000000
vt 0.000000 0.000000
vt 0.000000 0.000000
vt 0.000000 0.000000
vt 0.000000 0.000000
vt 0.000000 0.000000
vt 0.000000 0.000000
vt 0.000000 0.000000
vt 0.000000 0.000000
vt 0.000000 0.000000
vt 0.000000 0.000000
vt 0.000000 0.000000
vt 0.000000 0.000000
vt 0.000000 0.000000
vt 0.000000 0.000000
vt 0.000000 0.000000
vt 0.000000 0.000000
vt 0.000000 0.000000
vt 0.000000 0.000000
vt 0.000000 0.000000
vt 0.000000 0.000000
vt 0.000000 0.000000
vt 0.000000 0.000000
vt 0.000000 0.000000
vt 0.000000 0.000000
vt 0.000000 0.000000
vt 0.000000 0.000000
vt 0.000000 0.000000
vt 0.000000 0.000000
vt 0.000000 0.000000
vt 0.000000 0.000000
vt 0.000000 0.000000
vt 0.000000 0.000000
vt 0.000000 0.000000
vt 0.000000 0.000000
vt 0.000000 0.000000
vn -0.9511 0.0000 0.3090
vn 0.5878 0.0000 -0.8090
vn 0.0000 0.0000 1.0000
vn -0.5878 0.0000 -0.8090
vn 0.9511 0.0000 0.3090
vn -0.2341 -0.9692 -0.0761
vn 0.2341 -0.9692 -0.0761
vn -0.1447 -0.9692 0.1991
vn 0.0000 -0.9692 -0.2461
vn 0.1447 -0.9692 0.1991
vn 0.4817 0.5730 -0.6631
vn 0.0000 0.5730 0.8196
vn -0.4817 0.5730 -0.6631
vn 0.7795 0.5730 0.2533
vn -0.7795 0.5730 0.2533
vn -0.2656 -0.9602 -0.0863
vn 0.2656 -0.9602 -0.0863
vn -0.1642 -0.9602 0.2260
vn 0.0000 -0.9602 -0.2793
vn 0.1642 -0.9602 0.2260
vn 0.4253 0.6902 -0.5854
vn 0.0000 0.6902 0.7236
vn -0.4253 0.6902 -0.5854
vn 0.6882 0.6902 0.2236
vn -0.6882 0.6902 0.2236
vn 0.0819 -0.9903 0.1127
vn -0.1325 -0.9903 -0.0430
vn 0.1325 -0.9903 -0.0430
vn -0.0819 -0.9903 0.1127
vn 0.0000 -0.9903 -0.1393
vn -0.7417 0.6260 0.2410
vn 0.4584 0.6260 -0.6309
vn 0.0000 0.6260 0.7799
vn -0.4584 0.6260 -0.6309
vn 0.7417 0.6260 0.2410
usemtl None
s off
f 8/1/1 2/2/1 3/3/1
f 6/4/2 5/5/2 1/6/2
f 9/7/3 3/3/3 4/8/3
f 7/9/4 1/6/4 2/2/4
f 10/10/5 4/8/5 5/5/5
f 15/11/6 9/7/6 10/10/6
f 13/12/7 7/9/7 8/1/7
f 6/4/8 15/11/8 10/10/8
f 14/13/9 8/1/9 9/7/9
f 7/9/10 11/14/10 6/4/10
f 16/15/11 15/11/11 11/14/11
f 19/16/12 13/12/12 14/13/12
f 17/17/13 11/14/13 12/18/13
f 20/19/14 14/13/14 15/11/14
f 18/20/15 12/18/15 13/12/15
f 25/21/16 19/16/16 20/19/16
f 23/22/17 17/17/17 18/20/17
f 16/15/18 25/21/18 20/19/18
f 24/23/19 18/20/19 19/16/19
f 22/24/20 16/15/20 17/17/20
f 26/25/21 25/21/21 21/26/21
f 29/27/22 23/22/22 24/23/22
f 27/28/23 21/26/23 22/24/23
f 25/21/24 29/27/24 24/23/24
f 28/29/25 22/24/25 23/22/25
f 32/30/26 26/25/26 27/28/26
f 35/31/27 29/27/27 30/32/27
f 28/29/28 32/30/28 27/28/28
f 31/33/29 30/32/29 26/25/29
f 34/34/30 28/29/30 29/27/30
f 33/35/31 36/36/31 32/30/31
f 31/33/32 36/36/32 35/31/32
f 34/34/33 36/36/33 33/35/33
f 32/30/34 36/36/34 31/33/34
f 35/31/35 36/36/35 34/34/35
f 8/1/1 7/9/1 2/2/1
f 6/4/2 10/10/2 5/5/2
f 9/7/3 8/1/3 3/3/3
f 7/9/4 6/4/4 1/6/4
f 10/10/5 9/7/5 4/8/5
f 15/11/6 14/13/6 9/7/6
f 13/12/7 12/18/7 7/9/7
f 6/4/8 11/14/8 15/11/8
f 14/13/9 13/12/9 8/1/9
f 7/9/10 12/18/10 11/14/10
f 16/15/11 20/19/11 15/11/11
f 19/16/12 18/20/12 13/12/12
f 17/17/13 16/15/13 11/14/13
f 20/19/14 19/16/14 14/13/14
f 18/20/15 17/17/15 12/18/15
f 25/21/16 24/23/16 19/16/16
f 23/22/17 22/24/17 17/17/17
f 16/15/18 21/26/18 25/21/18
f 24/23/19 23/22/19 18/20/19
f 22/24/20 21/26/20 16/15/20
f 26/25/21 30/32/21 25/21/21
f 29/27/22 28/29/22 23/22/22
f 27/28/23 26/25/23 21/26/23
f 25/21/24 30/32/24 29/27/24
f 28/29/25 27/28/25 22/24/25
f 32/30/26 31/33/26 26/25/26
f 35/31/27 34/34/27 29/27/27
f 28/29/28 33/35/28 32/30/28
f 31/33/29 35/31/29 30/32/29
f 34/34/30 33/35/30 28/29/30
